<?xml version="1.0" standalone="no"?><!DOCTYPE svg PUBLIC "-//W3C//DTD SVG 1.1//EN" "http://www.w3.org/Graphics/SVG/1.1/DTD/svg11.dtd"><svg t="1493719377299" class="icon" style="" viewBox="0 0 1024 1024" version="1.1" xmlns="http://www.w3.org/2000/svg" p-id="34759" xmlns:xlink="http://www.w3.org/1999/xlink" width="150" height="150"><defs><style type="text/css"></style></defs><path d="M555.78 785.29c11.28-1 21.9-1.45 32.41-2.82a349.48 349.48 0 0 0 120.58-38.57c70.37-37.65 122.47-93.48 160-163.15 45-83.57 65.49-172.94 60.14-267.92-2.25-40-10.33-78.82-25.36-116.07-6-14.86-17.08-22.79-33-23-53.21-0.83-105.31 6.08-155.77 23.5-12.53 4.33-24.83 9.33-37.42 14.09-4.5-7.92-8.92-15.92-13.55-23.8-32.37-55.07-71-104.74-123-143-12.16-8.94-28.48-9.78-40.49-0.66-11.53 8.76-23 17.75-33.64 27.51-37.38 34.12-66.87 74.53-92.53 117.9-4 6.71-7.79 13.52-11.76 20.42-1.33-0.45-2.43-0.75-3.47-1.2-58.32-25-119.41-35.46-182.61-34.92-18.59 0.16-29.52 7.65-36.36 24.83-18.32 46-25.77 93.95-25.65 143.16a500.82 500.82 0 0 0 41.78 199.5c29.92 69.16 72.51 128.8 133.67 173.81 58.32 42.93 123.44 67.47 196.37 69.55a8.13 8.13 0 0 1 1.73 0.54v81.38c0 28.83-0.17 57.67 0.07 86.5a33.82 33.82 0 0 0 42.69 32.54c15.12-3.94 25.15-17.5 25.17-34.37q0.07-80 0-160v-5.75z m331.88-7.75c-11.54 1.1-20.51 1.75-29.43 2.83C794.74 788 735.33 807.58 681 841.7a343.17 343.17 0 0 0-70.15 58.22 33.77 33.77 0 0 0 17.07 56c12.63 2.94 23.78-0.56 32.75-10.06a278.2 278.2 0 0 1 48.14-41.12c56.8-37.74 119.77-56.06 187.5-59.13 17.5-0.79 30.89-13 33-30.77 1.91-15.85-8.82-31.69-24.95-35.66-6.15-1.5-12.77-1.29-16.7-1.64z m-732.53 0.17c-3.67 0.44-11 0.32-17.72 2.35-15.67 4.73-24.92 20.89-22.45 37.36a33.62 33.62 0 0 0 31.72 28.22 385.21 385.21 0 0 1 116.28 22.19c46.06 16.45 86.65 41.35 119.84 77.8 13.11 14.39 34.27 15.14 48 2.6a33.77 33.77 0 0 0 2.31-48 326.5 326.5 0 0 0-68.8-58.3c-62.84-39.76-131.96-59.19-209.18-64.22z" fill="#55a511" p-id="34760"></path><path d="M555.78 785.29v165.76c0 16.86-10 30.43-25.17 34.37a33.82 33.82 0 0 1-42.69-32.54c-0.23-28.83-0.06-57.66-0.07-86.5V785a8.13 8.13 0 0 0-1.73-0.54c-72.93-2.08-138-26.63-196.37-69.55-61.15-45-103.78-104.65-133.68-173.79a500.82 500.82 0 0 1-41.78-199.5c-0.12-49.21 7.34-97.19 25.65-143.16 6.84-17.18 17.77-24.67 36.36-24.83 63.2-0.54 124.29 10 182.61 34.92 1 0.45 2.14 0.74 3.47 1.2 4-6.91 7.78-13.71 11.76-20.42 25.66-43.36 55.15-83.78 92.53-117.9 10.68-9.75 22.11-18.75 33.64-27.51 12-9.12 28.33-8.27 40.49 0.66 52 38.22 90.62 87.89 123 143 4.63 7.88 9.05 15.88 13.55 23.8 12.59-4.76 24.89-9.76 37.42-14.09 50.46-17.42 102.56-24.33 155.77-23.5 15.95 0.25 27 8.18 33 23 15 37.25 23.11 76.06 25.36 116.07 5.35 95-15.11 184.35-60.14 267.92-37.53 69.66-89.63 125.5-160 163.15a349.48 349.48 0 0 1-120.57 38.57c-10.51 1.34-21.13 1.83-32.41 2.79z" fill="#55a511" p-id="34761"></path><path d="M887.66 777.54c3.93 0.35 10.55 0.14 16.75 1.66 16.13 4 26.86 19.81 24.95 35.66-2.14 17.76-15.54 30-33 30.77-67.73 3.07-130.71 21.39-187.5 59.13a278.2 278.2 0 0 0-48.14 41.12c-9 9.5-20.12 13-32.75 10.06a33.77 33.77 0 0 1-17.07-56A343.17 343.17 0 0 1 681 841.7c54.33-34.12 113.74-53.66 177.23-61.33 8.92-1.08 17.89-1.73 29.43-2.83zM155.13 777.71c77.22 5 146.34 24.46 209.13 64.2a326.5 326.5 0 0 1 68.8 58.3 33.77 33.77 0 0 1-2.31 48c-13.7 12.54-34.86 11.79-48-2.6-33.2-36.44-73.78-61.35-119.84-77.8a385.21 385.21 0 0 0-116.28-22.19 33.62 33.62 0 0 1-31.63-28.2c-2.47-16.47 6.78-32.63 22.45-37.36 6.66-2.06 14.01-1.9 17.68-2.35z" fill="#55a511" p-id="34762"></path></svg>