<?xml version="1.0" standalone="no"?><!DOCTYPE svg PUBLIC "-//W3C//DTD SVG 1.1//EN" "http://www.w3.org/Graphics/SVG/1.1/DTD/svg11.dtd"><svg t="1493719314927" class="icon" style="" viewBox="0 0 1025 1024" version="1.1" xmlns="http://www.w3.org/2000/svg" p-id="32407" xmlns:xlink="http://www.w3.org/1999/xlink" width="150.146484375" height="150"><defs><style type="text/css"></style></defs><path d="M571.861903 669.016064a69.157 69.04 0 1 0 141.633536 0 69.157 69.04 0 1 0-141.633536 0Z" fill="#55a511" p-id="32408"></path><path d="M78.715791 669.016064a69.158 69.04 0 1 0 141.635584 0 69.158 69.04 0 1 0-141.635584 0Z" fill="#55a511" p-id="32409"></path><path d="M744.397711 663.553024c0 1.83296-0.050176 3.653632-0.14336 5.46304l87.590912 0 0-93.724672L695.408527 575.291392C724.824975 593.700864 744.397711 626.335744 744.397711 663.553024z" fill="#55a511" p-id="32410"></path><path d="M860.118927 480.381952l0-34.277376 89.326592 0 0-74.553344-89.326592 0 0-35.990528 145.12128 0 0-52.272128-145.12128 0L860.118927 178.10944c0-12.191744-10.285056-22.076416-22.972416-22.076416L337.154959 156.033024c-12.68736 0-22.972416 9.883648-22.972416 22.076416l0 336.325632c0 12.19072 10.285056 22.07744 22.972416 22.07744l499.991552 0c11.077632 0 20.323328-7.538688 22.490112-17.567744l164.363264 0 0-38.561792L860.118927 480.382976z" fill="#55a511" p-id="32411"></path><path d="M583.208847 575.291392l-291.2768 0 0-1.287168 0-3.858432L291.932047 243.65056 126.048143 243.65056c0 0-33.799168 11.46368-79.50848 76.802048-35.15392 50.251776-44.74368 108.29824-46.342144 124.575744-0.444416 4.530176 0 18.210816 0 18.210816l0 106.9056-0.014336 0 0 5.144576 0 23.027712 0 70.69696 43.48416 0c-0.093184-1.809408-0.14336-3.63008-0.14336-5.46304 0-24.704 8.635392-47.382528 23.032832-65.23392 7.292928-9.042944 16.06656-16.836608 25.957376-23.027712 0.697344-0.4352 1.395712-0.868352 2.103296-1.287168 2.317312-1.375232 4.690944-2.6624 7.118848-3.858432 13.898752-6.846464 29.535232-10.71104 46.082048-10.71104 16.546816 0 32.18432 3.864576 46.083072 10.71104 2.428928 1.196032 4.801536 2.4832 7.118848 3.858432 0.707584 0.418816 1.406976 0.851968 2.103296 1.287168 9.890816 6.191104 18.664448 13.984768 25.9584 23.027712 14.39744 17.851392 23.031808 40.52992 23.031808 65.23392 0 1.83296-0.050176 3.653632-0.144384 5.46304l280.86272 0c-0.088064-1.739776-0.13312-3.490816-0.13312-5.252096C532.696975 626.11456 552.973199 593.210368 583.208847 575.291392zM254.014351 373.694464l0 14.99648 0 39.847936L72.894351 428.53888l0-51.56352 0-3.279872 0-18.009088 18.240512-18.410496 18.188288-18.209792 18.07872-17.888256 18.564096-18.745344 108.049408 0L254.015375 373.694464z" fill="#55a511" p-id="32412"></path></svg>